HIERARCHY
ROOT Hips
{
	OFFSET -0.001795 -0.223333 0.028219
	CHANNELS 6 Xposition Yposition Zposition Zrotation Yrotation Xrotation 
	JOINT LeftUpLeg
	{
		OFFSET 0.069520 -0.091406 -0.006815
		CHANNELS 3 Zrotation Yrotation Xrotation
		JOINT LeftLeg
		{
			OFFSET 0.034277 -0.375199 -0.004496
			CHANNELS 3 Zrotation Yrotation Xrotation
			JOINT LeftFoot
			{
				OFFSET -0.013596 -0.397961 -0.043693
				CHANNELS 3 Zrotation Yrotation Xrotation
				JOINT LeftToe
				{
					OFFSET 0.026358 -0.055791 0.119288
					CHANNELS 3 Zrotation Yrotation Xrotation
					End Site
					{
						OFFSET 0.000000 0.000000 0.000000
					}
				}
			}
		}
	}
	JOINT RightUpLeg
	{
		OFFSET -0.067670 -0.090522 -0.004320
		CHANNELS 3 Zrotation Yrotation Xrotation
		JOINT RightLeg
		{
			OFFSET -0.038290 -0.382569 -0.008850
			CHANNELS 3 Zrotation Yrotation Xrotation
			JOINT RightFoot
			{
				OFFSET 0.015774 -0.398415 -0.042312
				CHANNELS 3 Zrotation Yrotation Xrotation
				JOINT RightToe
				{
					OFFSET -0.025372 -0.048144 0.123348
					CHANNELS 3 Zrotation Yrotation Xrotation
					End Site
					{
						OFFSET 0.000000 0.000000 0.000000
					}
				}
			}
		}
	}
	JOINT Spine
	{
		OFFSET -0.002533 0.108963 -0.026696
		CHANNELS 3 Zrotation Yrotation Xrotation
		JOINT Spine1
		{
			OFFSET 0.005487 0.135180 0.001092
			CHANNELS 3 Zrotation Yrotation Xrotation
			JOINT Spine2
			{
				OFFSET 0.001457 0.052922 0.025425
				CHANNELS 3 Zrotation Yrotation Xrotation
				JOINT Neck
				{
					OFFSET -0.002778 0.213870 -0.042857
					CHANNELS 3 Zrotation Yrotation Xrotation
					JOINT Head
					{
						OFFSET 0.005152 0.064970 0.051349
						CHANNELS 3 Zrotation Yrotation Xrotation
						End Site
						{
							OFFSET 0.000000 0.000000 0.000000
						}
					}
				}
				JOINT LeftShoulder
				{
					OFFSET 0.078845 0.121749 -0.034090
					CHANNELS 3 Zrotation Yrotation Xrotation
					JOINT LeftArm
					{
						OFFSET 0.090977 0.030469 -0.008868
						CHANNELS 3 Zrotation Yrotation Xrotation
						JOINT LeftForeArm
						{
							OFFSET 0.259612 -0.012772 -0.027456
							CHANNELS 3 Zrotation Yrotation Xrotation
							JOINT LeftHand
							{
								OFFSET 0.249234 0.008986 -0.001171
								CHANNELS 3 Zrotation Yrotation Xrotation
								End Site
								{
									OFFSET 0.000000 0.000000 0.000000
								}
							}
						}
					}
				}
				JOINT RightShoulder
				{
					OFFSET -0.081759 0.118833 -0.038615
					CHANNELS 3 Zrotation Yrotation Xrotation
					JOINT RightArm
					{
						OFFSET -0.096012 0.032551 -0.009143
						CHANNELS 3 Zrotation Yrotation Xrotation
						JOINT RightForeArm
						{
							OFFSET -0.253742 -0.013329 -0.021401
							CHANNELS 3 Zrotation Yrotation Xrotation
							JOINT RightHand
							{
								OFFSET -0.255298 0.007772 -0.005559
								CHANNELS 3 Zrotation Yrotation Xrotation
								End Site
								{
									OFFSET 0.000000 0.000000 0.000000
								}
							}
						}
					}
				}
			}
		}
	}
}
MOTION
Frames: 15
Frame Time: 0.050000
0.000000 0.943065 0.000000 -1.427844 -3.086896 3.844869 6.480635 -0.178785 -2.315087 -0.157075 0.068483 -1.582551 0.896295 4.194988 6.646784 0.000000 0.000000 0.000000 -2.561063 0.413504 -4.087768 -1.056567 0.133087 0.575584 0.782872 -1.513385 6.428167 0.000000 0.000000 0.000000 5.174458 0.164860 -3.090813 -2.293889 1.071436 -3.140532 -3.097830 4.793537 4.713287 7.543101 -3.200768 -15.156066 0.000000 0.000000 0.000000 -19.268760 -3.865361 -0.764080 -51.808279 -8.071335 -2.519719 -12.566424 -20.067727 2.813360 0.000000 0.000000 0.000000 18.761119 -3.093509 -2.528467 59.047855 7.480976 -2.066077 11.113032 23.364929 3.083182 0.000000 0.000000 0.000000 
-0.000192 0.942243 0.001021 -1.769077 -3.910617 4.459484 6.921337 -0.158542 -1.838284 -0.029019 0.091771 -2.657295 1.053625 4.299100 6.228195 0.000000 0.000000 0.000000 -2.398557 0.479553 -4.848108 -1.008633 0.146330 0.969834 1.216310 -0.820961 6.788809 0.000000 0.000000 0.000000 5.857716 0.226670 -3.762419 -2.839107 1.305780 -3.007940 -3.361174 5.508259 4.212104 8.256942 -3.505971 -15.667281 0.000000 0.000000 0.000000 -20.619846 -3.675006 -1.140298 -50.579545 -8.128106 -2.320888 -12.536437 -19.186782 2.664523 0.000000 0.000000 0.000000 18.831597 -3.892848 -2.907112 60.157174 6.368837 -2.580798 11.104090 22.962947 3.035184 0.000000 0.000000 0.000000 
-0.000399 0.941785 0.001782 -1.436246 -3.414288 4.321610 6.604516 -0.166349 -1.891506 0.076840 0.057347 -1.941865 0.844146 3.678289 5.384314 0.000000 0.000000 0.000000 -2.453040 0.472514 -4.790198 -1.508128 0.204651 1.045432 0.421836 -2.338850 6.445808 0.000000 0.000000 0.000000 5.472769 0.218656 -3.723270 -2.099521 0.977340 -4.012560 -4.100261 5.532914 4.596779 8.005566 -3.489567 -14.738938 0.000000 0.000000 0.000000 -20.043366 -3.926712 -1.029323 -50.827196 -7.245553 -2.735742 -12.268941 -18.350127 2.493699 0.000000 0.000000 0.000000 19.922049 -3.452841 -2.641634 58.878078 5.569628 -3.048224 10.722551 23.101861 3.004893 0.000000 0.000000 0.000000 
-0.000604 0.941294 0.002444 -1.631665 -3.400958 4.715627 7.086290 -0.179386 -2.137522 -0.428700 0.121889 -2.450313 0.694811 3.504394 5.728403 0.000000 0.000000 0.000000 -2.329147 0.534094 -5.520850 -1.322172 0.206479 1.458934 0.245178 -2.658890 6.309551 0.000000 0.000000 0.000000 5.587719 0.238541 -4.002360 -2.199794 1.022119 -3.642876 -3.716279 5.068588 3.660776 7.999449 -3.673163 -13.790967 0.000000 0.000000 0.000000 -20.437651 -3.030403 -1.461075 -50.789637 -7.526665 -2.541661 -12.142670 -17.261139 2.332433 0.000000 0.000000 0.000000 19.063383 -3.793327 -2.910932 59.046559 4.921509 -3.224612 11.339390 22.578932 3.003536 0.000000 0.000000 0.000000 
-0.000873 0.941429 0.002931 -1.517614 -3.193692 4.574088 6.802009 -0.186338 -2.288967 -0.061976 0.079123 -2.188087 0.784527 3.686527 5.725400 0.000000 0.000000 0.000000 -2.404065 0.526219 -5.446574 -1.213668 0.198619 1.532898 -0.223839 -3.497777 5.933115 0.000000 0.000000 0.000000 5.509574 0.246649 -4.082394 -2.062746 0.965198 -3.482638 -3.801702 5.015120 3.664416 7.681916 -3.543786 -13.341115 0.000000 0.000000 0.000000 -20.319053 -3.098000 -1.430920 -50.737009 -7.303155 -2.631926 -12.425821 -16.814503 2.309304 0.000000 0.000000 0.000000 19.152724 -4.059603 -3.044969 58.769269 4.432329 -3.462380 11.761675 22.460424 3.069467 0.000000 0.000000 0.000000 
-0.001069 0.941677 0.003320 -1.558626 -3.070195 4.691470 6.902928 -0.188003 -2.225455 -0.197912 0.103828 -2.553390 0.730204 3.663900 5.950388 0.000000 0.000000 0.000000 -2.494373 0.538455 -5.600892 -1.135956 0.181502 1.367155 -0.209443 -3.667845 6.427060 0.000000 0.000000 0.000000 5.398536 0.252971 -4.203612 -1.885745 0.888871 -3.429012 -3.735608 4.826672 3.517360 7.529083 -3.508996 -13.022990 0.000000 0.000000 0.000000 -20.653024 -2.775709 -1.617815 -50.582966 -7.078256 -2.702071 -12.232282 -16.457916 2.235941 0.000000 0.000000 0.000000 19.019132 -4.016342 -3.045735 58.747053 4.205554 -3.547789 11.638957 21.808283 2.932844 0.000000 0.000000 0.000000 
-0.001179 0.941818 0.003530 -1.451881 -3.032609 4.613601 6.748326 -0.187730 -2.212505 -0.110006 0.100439 -2.690896 0.637889 3.638500 6.399983 0.000000 0.000000 0.000000 -2.493980 0.530624 -5.511056 -1.175570 0.187613 1.398510 -0.052190 -3.346426 6.478174 0.000000 0.000000 0.000000 5.293273 0.247208 -4.146337 -1.941894 0.914279 -3.264344 -3.712728 4.478058 3.510868 7.462327 -3.460685 -13.211858 0.000000 0.000000 0.000000 -20.638813 -2.398616 -1.728634 -50.729705 -6.863994 -2.823814 -11.835148 -16.303896 2.168982 0.000000 0.000000 0.000000 18.752889 -3.893722 -3.031744 58.870822 3.860642 -3.711043 11.621281 21.891700 2.925929 0.000000 0.000000 0.000000 
-0.001224 0.941930 0.003646 -1.402099 -2.801235 4.648644 6.604883 -0.196853 -2.337314 -0.113733 0.103953 -2.784417 0.541775 3.450062 6.316415 0.000000 0.000000 0.000000 -2.579390 0.532326 -5.545498 -1.036578 0.168141 1.313193 -0.129342 -3.490473 6.473527 0.000000 0.000000 0.000000 5.079975 0.221539 -3.916330 -1.851682 0.876420 -3.364230 -3.691242 4.378416 3.459488 7.304843 -3.440785 -12.720977 0.000000 0.000000 0.000000 -20.592414 -2.369570 -1.745516 -50.655573 -6.664277 -2.896751 -11.718880 -16.472466 2.174801 0.000000 0.000000 0.000000 18.714067 -4.150954 -3.166096 58.719020 3.750863 -3.746184 11.701561 21.747984 2.918156 0.000000 0.000000 0.000000 
-0.001241 0.941898 0.003740 -1.372696 -2.765868 4.600876 6.468403 -0.198893 -2.382444 -0.112848 0.103046 -2.759400 0.607203 3.522071 6.154275 0.000000 0.000000 0.000000 -2.618699 0.532384 -5.555294 -0.902659 0.151627 1.277594 -0.141085 -3.494991 6.432220 0.000000 0.000000 0.000000 5.038975 0.198499 -3.654396 -1.861682 0.881152 -3.467182 -3.593165 4.151371 3.524997 7.200141 -3.385945 -12.767745 0.000000 0.000000 0.000000 -20.450219 -2.081813 -1.815751 -50.823206 -6.791167 -2.880972 -11.546915 -16.452390 2.155210 0.000000 0.000000 0.000000 18.540064 -4.119304 -3.183392 58.543285 3.762460 -3.732453 11.527021 21.844969 2.891299 0.000000 0.000000 0.000000 
-0.001273 0.941843 0.003863 -1.326183 -2.782917 4.604259 6.339383 -0.204146 -2.510852 -0.165911 0.106822 -2.730938 0.720291 3.704177 6.068142 0.000000 0.000000 0.000000 -2.729583 0.533346 -5.576827 -0.778416 0.127218 1.055196 -0.115010 -3.451096 6.459386 0.000000 0.000000 0.000000 4.981482 0.181783 -3.471940 -1.881006 0.889385 -3.533880 -3.515330 4.145650 3.613802 7.059365 -3.305740 -12.732255 0.000000 0.000000 0.000000 -20.279822 -2.039139 -1.803386 -50.953031 -6.707954 -2.938123 -11.671893 -16.661071 2.202480 0.000000 0.000000 0.000000 18.390395 -4.278385 -3.260230 58.566766 3.708101 -3.762680 11.399163 22.067751 2.902296 0.000000 0.000000 0.000000 
-0.001329 0.941837 0.003971 -1.254100 -2.799808 4.706230 6.253562 -0.209002 -2.586703 -0.145916 0.110432 -2.893389 0.734154 3.719425 6.040776 0.000000 0.000000 0.000000 -2.840641 0.548592 -5.776141 -0.749555 0.119016 0.949787 -0.185211 -3.616274 6.487387 0.000000 0.000000 0.000000 4.952880 0.164286 -3.295045 -1.884041 0.890272 -3.573409 -3.517053 4.131231 3.640635 7.084409 -3.305741 -12.842533 0.000000 0.000000 0.000000 -20.312316 -2.012357 -1.813782 -50.772334 -6.715294 -2.925363 -11.864152 -17.176121 2.301404 0.000000 0.000000 0.000000 18.319029 -4.379877 -3.313203 58.509828 3.838951 -3.694616 11.333244 22.207220 2.911219 0.000000 0.000000 0.000000 
-0.001376 0.941750 0.004055 -1.250191 -2.668265 4.839954 6.258019 -0.219516 -2.763059 -0.179958 0.113067 -2.883610 0.729989 3.696298 5.967996 0.000000 0.000000 0.000000 -2.839662 0.557693 -5.888380 -0.773242 0.117689 0.866766 -0.309215 -3.913008 6.584806 0.000000 0.000000 0.000000 4.873560 0.148069 -3.144953 -1.873415 0.886406 -3.564772 -3.406184 4.039127 3.499359 6.885388 -3.155508 -12.957535 0.000000 0.000000 0.000000 -20.132164 -1.873418 -1.860993 -50.855853 -6.640600 -2.950112 -12.085491 -17.737945 2.410847 0.000000 0.000000 0.000000 18.008874 -4.583420 -3.401648 58.746708 3.658751 -3.765699 11.140557 22.519523 2.921324 0.000000 0.000000 0.000000 
-0.001396 0.941826 0.004148 -1.276988 -2.658153 4.865101 6.243004 -0.224538 -2.883070 -0.142266 0.105343 -2.750543 0.761581 3.719203 5.854190 0.000000 0.000000 0.000000 -2.775555 0.567753 -6.008867 -0.771547 0.120237 0.923830 -0.357562 -4.033440 6.625716 0.000000 0.000000 0.000000 4.830122 0.120660 -2.833692 -1.855224 0.878449 -3.667028 -3.263281 4.125942 3.378570 6.819550 -3.090757 -13.040340 0.000000 0.000000 0.000000 -20.178158 -1.902626 -1.872485 -50.579731 -6.595456 -2.933807 -12.689134 -18.373369 2.591125 0.000000 0.000000 0.000000 18.100819 -4.794487 -3.515127 58.450467 3.543490 -3.794535 11.233574 22.818567 2.985794 0.000000 0.000000 0.000000 
-0.001379 0.941859 0.004266 -1.310345 -2.572255 4.788611 6.345433 -0.229234 -3.040994 -0.215100 0.102914 -2.477201 0.925847 4.005761 5.767890 0.000000 0.000000 0.000000 -2.727541 0.574387 -6.098371 -0.721304 0.120932 1.050196 -0.451333 -4.189888 6.531699 0.000000 0.000000 0.000000 4.796080 0.081049 -2.359403 -1.812445 0.860859 -3.762487 -3.103490 4.158968 3.308559 6.692258 -2.988365 -13.131243 0.000000 0.000000 0.000000 -20.147659 -1.867394 -1.902460 -50.510086 -6.562060 -2.934447 -13.126040 -19.001430 2.750510 0.000000 0.000000 0.000000 18.069219 -4.777865 -3.494131 58.290480 3.496448 -3.801795 11.167613 23.316186 3.050419 0.000000 0.000000 0.000000 
-0.001362 0.942035 0.004364 -1.359218 -2.483528 4.817341 6.429748 -0.239811 -3.322911 -0.303289 0.102528 -2.211918 0.955872 4.060684 5.746036 0.000000 0.000000 0.000000 -2.692738 0.585937 -6.242416 -0.710864 0.126134 1.182765 -0.409828 -4.103878 6.558532 0.000000 0.000000 0.000000 4.801231 0.058575 -2.105868 -1.773093 0.845023 -3.889505 -3.037279 4.192657 3.400144 6.650438 -2.920484 -13.368768 0.000000 0.000000 0.000000 -20.056350 -1.767707 -1.955254 -50.418413 -6.610566 -2.916419 -13.588737 -19.585707 2.914282 0.000000 0.000000 0.000000 18.015217 -4.698637 -3.430925 58.178205 3.576289 -3.765329 11.161336 23.536699 3.085924 0.000000 0.000000 0.000000 
